<svg xmlns="http://www.w3.org/2000/svg" width="145.25" height="163.277" viewBox="0 0 145.25 163.277">
  <g id="Icon_ionic-logo-apple" data-name="Icon ionic-logo-apple" transform="translate(-4.677 -5.343) scale(1 0.951)">
    <path id="Path_3" data-name="Path 3" d="M109.88,10.821c-14.583,0-20.746,7.2-30.9,7.2-10.416,0-18.359-7.157-30.989-7.157-12.369,0-25.563,7.811-33.94,21.121C2.288,50.75,4.285,86.1,23.338,116.208c6.814,10.779,15.928,22.867,27.864,23h.217c10.373,0,13.454-7.026,27.734-7.113h.217c14.062,0,16.883,7.069,27.213,7.069h.217c11.935-.131,21.527-13.528,28.341-24.263,4.9-7.724,6.727-11.608,10.5-20.335-27.56-10.822-31.987-51.231-4.731-66.723C132.579,17.061,120.9,10.821,109.88,10.821Z" transform="translate(0 32.91)" fill="#fba004"/>
    <path id="Path_4" data-name="Path 4" d="M50.753,4.5c-8.68.611-18.793,6.328-24.739,13.79-5.382,6.764-9.809,16.8-8.073,26.532h.694c9.245,0,18.706-5.76,24.218-13.135,5.338-7.026,9.375-16.975,7.9-27.187Z" transform="translate(55.916)" fill="#fba004"/>
  </g>
</svg>
